<?xml version="1.0" encoding="UTF-8"?>
<svg id="Capa_2" data-name="Capa 2" xmlns="http://www.w3.org/2000/svg" viewBox="0 0 3255.6 476.94">
  <defs>
    <style>
      .cls-1 {
        fill: #5277ae;
        stroke-width: 0px;
      }
    </style>
  </defs>
  <g id="Capa_5" data-name="Capa 5">
    <g>
      <path class="cls-1" d="M350.66,476.28c-95.59,0-191.18.02-286.77-.01-33.01-.01-61.9-27.89-61.98-61.03C1.61,298.28.33,183.59,0,64.74.07,31.84,30.48,3.86,63.44,3.85c190.94-.06,381.88-.06,572.83,0,35.11.01,64.46,29.8,64.51,65.63.14,95.8.06,191.61.07,287.41,0,17.99-.13,35.99.04,53.98.35,36.61-31.51,66.03-65.65,65.71-94.85-.88-189.72-.31-284.58-.31ZM351,64.76c-81.74,0-163.48-.02-245.23.01-22.77,0-41.07,18.19-41.42,41.05-.09,5.84-.02,11.67-.02,17.51.02,55.45-.05,110.9.13,166.34.06,18.72,17.15,38.38,34.65,39.2,23.7,1.1,47.51,1.39,71.17.85,18.39-.42,36.77.08,55.15-.28,41.97-.8,83.96-.37,125.95-.21,29.77.11,59.57,1.66,89.29.58,22.31-.81,44.58,0,66.86-.46,29.18-.6,58.39-.37,87.58-.14,22.69.18,41.99-19.77,41.87-42.42-.32-60.31-.3-120.63-.01-180.94.09-19.55-16.98-41.14-41.47-41.12-81.5.06-163,.02-244.5.02ZM511.23,421.53c0-11.64-9.41-21.09-20.78-20.89-10.93.2-20.01,9.67-20.07,20.95-.06,11.11,9.16,20.68,20.13,20.89,11.32.21,20.73-9.3,20.73-20.95ZM191.5,421.51c.02,11.34,9.04,20.8,19.96,20.91,11.31.11,20.89-9.47,20.85-20.87-.03-11.22-9.16-20.72-20.13-20.93-11.23-.22-20.71,9.35-20.69,20.9Z"/>
      <path class="cls-1" d="M351.9,253.3c-36.57,0-73.15-.49-109.71.18-22.54.42-43.72-21.24-46.42-42.24-3.41-26.47,15.25-50.83,39.43-54.88,2.42-.41,4.9-.64,7.35-.64,72.79-.03,145.58-.06,218.37,0,26.57.02,49.13,22.73,48.65,49.16-.48,26.29-21.99,48.95-48.49,48.58-36.39-.52-72.79-.13-109.18-.13v-.03ZM214.03,204.84c.06,16.37,13.77,30.26,29.81,30.22,16.05-.04,29.51-14.05,29.41-30.62-.1-16.36-13.39-29.68-29.6-29.66-16.63.02-29.68,13.27-29.62,30.05ZM461.01,174.82c-16.56-.03-29.68,12.95-29.69,29.37,0,16.97,12.95,30.68,29.14,30.85,16.12.17,30.21-14.07,30.25-30.57.04-16.14-13.46-29.61-29.71-29.65Z"/>
    </g>
    <g>
      <polygon class="cls-1" points="1027.51 3.76 998.33 3.76 904.53 347.8 810.08 3.76 778.13 3.76 764.52 3.76 734.85 3.76 734.85 473.18 795.7 473.18 795.7 184.35 875.35 472.55 932.42 472.55 1010.57 184.99 1010.57 473.18 1073.59 473.18 1073.59 3.76 1041.74 3.76 1027.51 3.76"/>
      <path class="cls-1" d="M1243.97,0c-41.04,0-72.79,11.91-94.35,35.41h0c-21.21,23.12-31.96,53.73-31.96,90.99v224.13c0,37.27,10.76,67.88,31.96,90.98,21.55,23.5,53.29,35.42,94.35,35.42s74.18-11.79,95.74-35.04c21.24-22.92,32.02-53.66,32.02-91.36V126.4c0-37.7-10.77-68.43-32.02-91.36-21.56-23.25-53.77-35.04-95.74-35.04ZM1182.13,352.41V124.53c0-21.55,5.09-38.49,15.12-50.34,9.52-11.24,24.8-16.71,46.72-16.71s38.13,5.5,47.9,16.81c10.22,11.85,15.39,28.75,15.39,50.24v227.89c0,21.49-5.18,38.39-15.39,50.23-9.77,11.32-25.44,16.82-47.9,16.82s-37.2-5.47-46.72-16.71h0c-10.03-11.85-15.12-28.78-15.12-50.34Z"/>
      <path class="cls-1" d="M1598.91,351.79c0,21.69-4.93,38.85-14.66,50.97-9.02,11.24-23.98,16.71-45.74,16.71s-36.72-5.46-45.74-16.7h0c-9.73-12.12-14.66-29.27-14.66-50.97V3.76h-64.47v346.78c0,37.15,10.32,67.69,30.67,90.76,20.84,23.65,52.29,35.65,93.47,35.65s72.56-12.02,93.18-35.72c20.06-23.07,30.24-53.58,30.24-90.68V3.76h-62.3v348.03Z"/>
      <path class="cls-1" d="M1900.44,251.16c-13.29-10.22-30.75-22.1-51.83-35.25-19.28-12.21-34.54-22.73-45.34-31.29-9.9-7.83-18.32-17.24-25.05-27.99-6.19-9.86-9.2-20.98-9.2-33.98,0-20.79,4.89-37.25,14.53-48.93,9.02-10.93,23.79-16.25,45.15-16.25s36.12,5.32,45.15,16.24c9.64,11.69,14.53,28.36,14.53,49.56v26.86h63.02v-24.98c0-37.16-10.21-67.5-30.34-90.17h0C1900.41,11.77,1869.1,0,1827.79,0c-40.45.47-71.5,12.04-92.29,34.4-20.53,22.09-30.95,52.41-30.95,90.13,0,22.42,5.26,42.51,15.62,59.69,9.85,16.38,22.19,30.44,36.65,41.79,13.44,10.55,30.95,22.57,52,35.69,18.77,11.78,33.77,22.09,44.56,30.63,9.93,7.87,18.38,17.22,25.12,27.77,6.15,9.65,9.14,20.63,9.14,33.57,0,21.11-4.95,37.61-14.71,49.04-9.15,10.71-24.77,16.14-46.41,16.14s-37.13-5.28-46.41-16.14c-9.77-11.43-14.72-27.93-14.72-49.04v-40.01h-63.01v38.13c0,37.22,10.36,67.58,30.77,90.25,20.84,23.16,52.49,34.9,94.09,34.9s73.23-11.74,94.08-34.9c20.42-22.69,30.78-53.05,30.78-90.25,0-22.36-5.12-42.31-15.22-59.31-9.66-16.25-21.93-30.15-36.46-41.32Z"/>
      <rect class="cls-1" x="1994.02" y="3.76" width="64.47" height="469.42"/>
      <polygon class="cls-1" points="2088.82 61.23 2192.3 61.23 2192.3 473.18 2256.77 473.18 2256.77 61.23 2359.53 61.23 2359.53 3.76 2088.82 3.76 2088.82 61.23"/>
      <polygon class="cls-1" points="2391.3 473.18 2622.22 473.18 2622.22 415.71 2455.77 415.71 2455.77 264.07 2593.99 264.07 2593.99 206.6 2455.77 206.6 2455.77 61.23 2622.22 61.23 2622.22 3.76 2391.3 3.76 2391.3 473.18"/>
      <path class="cls-1" d="M2881.74,35.64c-20.86-23.65-52.56-35.64-94.19-35.64s-73.34,11.99-94.19,35.64c-20.35,23.09-30.68,53.62-30.68,90.76v224.13c0,37.15,10.32,67.69,30.67,90.76,20.84,23.65,52.53,35.65,94.19,35.65s73.34-11.99,94.2-35.64c20.35-23.08,30.67-53.62,30.67-90.76v-65.67h-63.02v67.55c0,21.2-5,37.96-14.86,49.83-9.27,11.17-24.41,16.6-46.26,16.6s-36.99-5.43-46.26-16.6c-9.86-11.87-14.85-28.63-14.85-49.83V124.53c0-21.23,5.02-38.13,14.92-50.23,9.27-11.32,24.38-16.83,46.2-16.83s36.92,5.5,46.2,16.82c9.9,12.1,14.93,29,14.93,50.23v53.78h63.02v-51.9c0-37.12-10.32-67.66-30.67-90.75h0Z"/>
      <path class="cls-1" d="M3134.69,3.13h-72.72l-118.59,470.05h62.45l25.33-97.04h133.68l25.33,97.04h65.44L3134.69,3.13ZM3044.29,319.92l53.13-206.13,54.17,206.13h-107.3Z"/>
    </g>
  </g>
</svg>