<?xml version="1.0" encoding="UTF-8"?>
<svg id="Capa_2" data-name="Capa 2" xmlns="http://www.w3.org/2000/svg" viewBox="0 0 700.9 472.79">
  <defs>
    <style>
      .cls-1 {
        fill: #5277ae;
        stroke-width: 0px;
      }
    </style>
  </defs>
  <g id="Capa_4" data-name="Capa 4">
    <g>
      <path class="cls-1" d="M350.66,472.48c-95.59,0-191.18.02-286.77-.01-33.01-.01-61.9-27.89-61.98-61.03C1.61,294.47.33,179.78,0,60.93.07,28.03,30.48.05,63.44.04,254.38-.01,445.32-.02,636.27.05c35.11.01,64.46,29.8,64.51,65.63.14,95.8.06,191.61.07,287.41,0,17.99-.13,35.99.04,53.98.35,36.61-31.51,66.03-65.65,65.71-94.85-.88-189.72-.31-284.58-.31ZM351,60.95c-81.74,0-163.48-.02-245.23.01-22.77,0-41.07,18.19-41.42,41.05-.09,5.84-.02,11.67-.02,17.51.02,55.45-.05,110.9.13,166.34.06,18.72,17.15,38.38,34.65,39.2,23.7,1.1,47.51,1.39,71.17.85,18.39-.42,36.77.08,55.15-.28,41.97-.8,83.96-.37,125.95-.21,29.77.11,59.57,1.66,89.29.58,22.31-.81,44.58,0,66.86-.46,29.18-.6,58.39-.37,87.58-.14,22.69.18,41.99-19.77,41.87-42.42-.32-60.31-.3-120.63-.01-180.94.09-19.55-16.98-41.14-41.47-41.12-81.5.06-163,.02-244.5.02ZM511.23,417.72c0-11.64-9.41-21.09-20.78-20.89-10.93.2-20.01,9.67-20.07,20.95-.06,11.11,9.16,20.68,20.13,20.89,11.32.21,20.73-9.3,20.73-20.95ZM191.5,417.7c.02,11.34,9.04,20.8,19.96,20.91,11.31.11,20.89-9.47,20.85-20.87-.03-11.22-9.16-20.72-20.13-20.93-11.23-.22-20.71,9.35-20.69,20.9Z"/>
      <path class="cls-1" d="M351.9,249.49c-36.57,0-73.15-.49-109.71.18-22.54.42-43.72-21.24-46.42-42.24-3.41-26.47,15.25-50.83,39.43-54.88,2.42-.41,4.9-.64,7.35-.64,72.79-.03,145.58-.06,218.37,0,26.57.02,49.13,22.73,48.65,49.16-.48,26.29-21.99,48.95-48.49,48.58-36.39-.52-72.79-.13-109.18-.13v-.03ZM214.03,201.04c.06,16.37,13.77,30.26,29.81,30.22,16.05-.04,29.51-14.05,29.41-30.62-.1-16.36-13.39-29.68-29.6-29.66-16.63.02-29.68,13.27-29.62,30.05ZM461.01,171.01c-16.56-.03-29.68,12.95-29.69,29.37,0,16.97,12.95,30.68,29.14,30.85,16.12.17,30.21-14.07,30.25-30.57.04-16.14-13.46-29.61-29.71-29.65Z"/>
    </g>
  </g>
</svg>