<?xml version="1.0" encoding="UTF-8"?>
<svg xmlns="http://www.w3.org/2000/svg" viewBox="0 0 3243.38 713.24">
  <defs>
    <style>
      .cls-1 {
        fill: #2b58a7;
      }

      .cls-1, .cls-2, .cls-3, .cls-4 {
        stroke-width: 0px;
      }

      .cls-2 {
        fill: #f0f2f7;
      }

      .cls-3 {
        fill: #231916;
      }

      .cls-4 {
        fill: #fff;
      }
    </style>
  </defs>
  <g id="Capa_4" data-name="Capa 4">
    <path class="cls-2" d="M3243.23,614.16c0-27.65-.04-70.22-.04-97.59,0,0-1.59-184.42-1.6-211.45,0-20.65-.42-239.78-3.38-251.24-10.01-38.73-42.82-51.41-66.71-51.15-97.47,1.06-196.66.79-294.13.79h.01c-95.11.02-191.77.25-286.79-.78-23.89-.26-56.7,12.43-66.71,51.15-2.96,11.46-1.99,31.11-1.99,47.92,0,27.65.04,70.22.04,97.59l3.04,317.16c0,27.37-.04,69.94-.04,97.59,0,16.82-.98,36.46,1.99,47.92,10.01,38.73,42.82,51.41,66.71,51.15,60.34-.65,121.34-.8,182.19-.82l301.01.82.56-.67c32.48.12,64.91.31,97.14.66,23.89.26,56.7-12.43,66.71-51.15,2.96-11.46,1.99-31.11,1.99-47.92Z"/>
    <path class="cls-1" d="M2882.78,603.6c-95.59,0-191.18.02-286.77-.01-33.01-.01-61.9-27.89-61.98-61.03-.29-116.96-1.58-231.64-1.91-350.5.07-32.9,30.48-60.88,63.44-60.89,190.94-.06,381.88-.06,572.83,0,35.11.01,64.46,29.8,64.51,65.63.14,95.8.06,191.61.07,287.41,0,17.99-.13,35.99.04,53.98.35,36.61-31.51,66.03-65.65,65.71-94.85-.88-189.72-.31-284.58-.31ZM2883.11,192.08c-81.74,0-163.48-.02-245.23.01-22.77,0-41.07,18.19-41.42,41.05-.09,5.84-.02,11.67-.02,17.51.02,55.45-.05,110.9.13,166.34.06,18.72,17.15,38.38,34.65,39.2,23.7,1.1,47.51,1.39,71.17.85,18.39-.42,36.77.08,55.15-.28,41.97-.8,83.96-.37,125.95-.21,29.77.11,59.57,1.66,89.29.58,22.31-.81,44.58,0,66.86-.46,29.18-.6,58.39-.37,87.58-.14,22.69.18,41.99-19.77,41.87-42.42-.32-60.31-.3-120.63-.01-180.94.09-19.55-16.98-41.14-41.47-41.12-81.5.06-163,.02-244.5.02ZM3043.35,548.85c0-11.64-9.41-21.09-20.78-20.89-10.93.2-20.01,9.67-20.07,20.95-.06,11.11,9.16,20.68,20.13,20.89,11.32.21,20.73-9.3,20.73-20.95ZM2723.62,548.83c.02,11.34,9.04,20.8,19.96,20.91,11.31.11,20.89-9.47,20.85-20.87-.03-11.22-9.16-20.72-20.13-20.93-11.23-.22-20.71,9.35-20.69,20.9Z"/>
    <path class="cls-4" d="M2884.95,166.05c-81.74,0-163.48-.02-245.23.01-22.77,0-41.07,19.91-41.42,44.93-.09,6.39-.02,12.78-.02,19.16.02,60.69-.05,121.37.13,182.06.06,20.49,17.15,42.01,34.65,42.9,23.7,1.2,47.51,1.52,71.17.93,18.39-.46,36.77.08,55.15-.3,41.97-.88,83.96-.41,125.95-.23,29.77.12,59.57,1.81,89.29.64,22.31-.88,44.58,0,66.86-.5,29.18-.66,58.39-.41,87.58-.15,22.69.2,41.99-21.64,41.87-46.43-.32-66.01-.3-132.02-.01-198.03.09-21.39-16.98-45.02-41.47-45-81.5.06-163,.02-244.5.02Z"/>
    <path class="cls-1" d="M2884.02,380.62c-36.57,0-73.15-.49-109.71.18-22.54.42-43.72-21.24-46.42-42.24-3.41-26.47,15.25-50.83,39.43-54.88,2.42-.41,4.9-.64,7.35-.64,72.79-.03,145.58-.06,218.37,0,26.57.02,49.13,22.73,48.65,49.16-.48,26.29-21.99,48.95-48.49,48.58-36.39-.52-72.79-.13-109.18-.13v-.03ZM2746.15,332.16c.06,16.37,13.77,30.26,29.81,30.22,16.05-.04,29.51-14.05,29.41-30.62-.1-16.36-13.39-29.68-29.6-29.66-16.63.02-29.68,13.27-29.62,30.05ZM2993.13,302.14c-16.56-.03-29.68,12.95-29.69,29.37,0,16.97,12.95,30.68,29.14,30.85,16.12.17,30.21-14.07,30.25-30.57.04-16.14-13.46-29.61-29.71-29.65Z"/>
  </g>
  <g id="Capa_2" data-name="Capa 2">
    <path class="cls-2" d="M1564.61,594.86c0-26.9-.04-68.32-.04-94.94,0,0-1.55-179.42-1.55-205.72,0-20.1-.41-233.28-3.29-244.43C1549.99,12.1,1518.07-.25,1494.83,0c-94.82,1.03-191.33.77-286.16.77h.01c-92.53.02-186.57.24-279.02-.76-23.24-.25-55.16,12.09-64.9,49.77-2.88,11.15-1.93,30.26-1.93,46.62,0,26.9.04,68.32.04,94.94l2.95,308.57c0,26.63-.04,68.04-.04,94.94,0,16.36-.95,35.47,1.93,46.62,9.74,37.68,41.66,50.02,64.9,49.77,58.71-.64,118.06-.78,177.25-.79l292.86.8.55-.65c31.6.11,63.15.3,94.51.64,23.24.25,55.16-12.09,64.9-49.77,2.88-11.15,1.93-30.26,1.93-46.62Z"/>
    <path class="cls-3" d="M1214.38,690.94c-95.59,0-191.18.02-286.77-.01-33.01-.01-61.9-27.89-61.98-61.03-.29-116.96-1.58-231.64-1.91-350.5.07-32.9,30.48-60.88,63.44-60.89,190.94-.06,381.88-.06,572.83,0,35.11.01,64.46,29.8,64.51,65.63.14,95.8.06,191.61.07,287.41,0,17.99-.13,35.99.04,53.98.35,36.61-31.51,66.03-65.65,65.71-94.85-.88-189.72-.31-284.58-.31ZM1214.72,279.42c-81.74,0-163.48-.02-245.23.01-22.77,0-41.07,18.19-41.42,41.05-.09,5.84-.02,11.67-.02,17.51.02,55.45-.05,110.9.13,166.34.06,18.72,17.15,38.38,34.65,39.2,23.7,1.1,47.51,1.39,71.17.85,18.39-.42,36.77.08,55.15-.28,41.97-.8,83.96-.37,125.95-.21,29.77.11,59.57,1.66,89.29.58,22.31-.81,44.58,0,66.86-.46,29.18-.6,58.39-.37,87.58-.14,22.69.18,41.99-19.77,41.87-42.42-.32-60.31-.3-120.63-.01-180.94.09-19.55-16.98-41.14-41.47-41.12-81.5.06-163,.02-244.5.02ZM1374.95,636.19c0-11.64-9.41-21.09-20.78-20.89-10.93.2-20.01,9.67-20.07,20.95-.06,11.11,9.16,20.68,20.13,20.89,11.32.21,20.73-9.3,20.73-20.95ZM1055.22,636.17c.02,11.34,9.04,20.8,19.96,20.91,11.31.11,20.89-9.47,20.85-20.87-.03-11.22-9.16-20.72-20.13-20.93-11.23-.22-20.71,9.35-20.69,20.9Z"/>
    <path class="cls-3" d="M1211.71,485.3c-50.33,0-100.67-.68-150.97.25-31.02.57-60.16-29.23-63.88-58.12-4.69-36.42,20.99-69.94,54.26-75.53,3.33-.56,6.74-.88,10.11-.88,100.17-.04,200.33-.08,300.5,0,36.57.03,67.61,31.28,66.95,67.65-.66,36.18-30.26,67.37-66.72,66.85-50.07-.71-100.16-.18-150.25-.18v-.04ZM1021.98,418.62c.09,22.52,18.94,41.64,41.02,41.59,22.08-.05,40.61-19.34,40.47-42.13-.14-22.52-18.43-40.84-40.73-40.81-22.88.03-40.85,18.26-40.76,41.36ZM1361.85,377.3c-22.78-.05-40.85,17.83-40.85,40.42,0,23.35,17.82,42.22,40.11,42.45,22.19.23,41.57-19.36,41.63-42.07.06-22.21-18.52-40.75-40.88-40.79Z"/>
  </g>
  <g id="Capa_3" data-name="Capa 3">
    <path class="cls-2" d="M2392.87,594.86c0-26.9-.04-68.32-.04-94.94,0,0-1.55-179.42-1.55-205.72,0-20.1-.41-233.28-3.29-244.43C2378.25,12.1,2346.33-.25,2323.09,0c-94.82,1.03-191.33.77-286.16.77h.01c-92.53.02-186.57.24-279.02-.76-23.24-.25-55.16,12.09-64.9,49.77-2.88,11.15-1.93,30.26-1.93,46.62,0,26.9.04,68.32.04,94.94l2.95,308.57c0,26.63-.04,68.04-.04,94.94,0,16.36-.95,35.47,1.93,46.62,9.74,37.68,41.66,50.02,64.9,49.77,58.71-.64,118.06-.78,177.25-.79l292.86.8.55-.65c31.6.11,63.15.3,94.51.64,23.24.25,55.16-12.09,64.9-49.77,2.88-11.15,1.93-30.26,1.93-46.62Z"/>
    <g>
      <path class="cls-3" d="M2042.2,587.06c-95.59,0-191.18.02-286.77-.01-33.01-.01-61.9-27.89-61.98-61.03-.29-116.96-1.58-231.64-1.91-350.5.07-32.9,30.48-60.88,63.44-60.89,190.94-.06,381.88-.06,572.83,0,35.11.01,64.46,29.8,64.51,65.63.14,95.8.06,191.61.07,287.41,0,17.99-.13,35.99.04,53.98.35,36.61-31.51,66.03-65.65,65.71-94.85-.88-189.72-.31-284.58-.31ZM2042.53,175.54c-81.74,0-163.48-.02-245.23.01-22.77,0-41.07,18.19-41.42,41.05-.09,5.84-.02,11.67-.02,17.51.02,55.45-.05,110.9.13,166.34.06,18.72,17.15,38.38,34.65,39.2,23.7,1.1,47.51,1.39,71.17.85,18.39-.42,36.77.08,55.15-.28,41.97-.8,83.96-.37,125.95-.21,29.77.11,59.57,1.66,89.29.58,22.31-.81,44.58,0,66.86-.46,29.18-.6,58.39-.37,87.58-.14,22.69.18,41.99-19.77,41.87-42.42-.32-60.31-.3-120.63-.01-180.94.09-19.55-16.98-41.14-41.47-41.12-81.5.06-163,.02-244.5.02ZM2202.76,532.31c0-11.64-9.41-21.09-20.78-20.89-10.93.2-20.01,9.67-20.07,20.95-.06,11.11,9.16,20.68,20.13,20.89,11.32.21,20.73-9.3,20.73-20.95ZM1883.03,532.28c.02,11.34,9.04,20.8,19.96,20.91,11.31.11,20.89-9.47,20.85-20.87-.03-11.22-9.16-20.72-20.13-20.93-11.23-.22-20.71,9.35-20.69,20.9Z"/>
      <path class="cls-3" d="M2039.53,381.42c-50.33,0-100.67-.68-150.97.25-31.02.57-60.16-29.23-63.88-58.12-4.69-36.42,20.99-69.94,54.26-75.53,3.33-.56,6.74-.88,10.11-.88,100.17-.04,200.33-.08,300.5,0,36.57.03,67.61,31.28,66.95,67.65-.66,36.18-30.26,67.37-66.72,66.85-50.07-.71-100.16-.18-150.25-.18v-.04ZM1849.8,314.74c.09,22.52,18.94,41.64,41.02,41.59,22.08-.05,40.61-19.34,40.47-42.13-.14-22.52-18.43-40.84-40.73-40.81-22.88.03-40.85,18.26-40.76,41.36ZM2189.66,273.42c-22.78-.05-40.85,17.83-40.85,40.42,0,23.35,17.82,42.22,40.11,42.45,22.19.23,41.57-19.36,41.63-42.07.06-22.21-18.52-40.75-40.88-40.79Z"/>
    </g>
  </g>
</svg>